# xmcd
#
# Track frame offsets:
#	150
#	16310
#	31085
#	47055
#	61875
#	74480
#	90905
#	106820
#	119078
#	135170
#	146758
#	165633
#	184535
#	202583
#	220305
#	237593
#
# Disc length: 3476 seconds
#
# Revision: 1
# Processed by: cddbd v1.5PL3 Copyright (c) Steve Scherf et al.
# Submitted via: CDex 1.50Beta5
#
DISCID=d60d9210
DTITLE=美空ひばり - オリジナル・ベスト50―悲しき口笛〜川の流れのように― Disc 2
DYEAR=1996
DGENRE=Pop
TTITLE0=長崎の蝶々さん
TTITLE1=江戸の闇太郎
TTITLE2=三味線マドロス
TTITLE3=花笠道中
TTITLE4=べらんめえ芸者
TTITLE5=初恋マドロス
TTITLE6=哀愁波止場
TTITLE7=車屋さん
TTITLE8=鼻唄マドロス
TTITLE9=ひばりの渡り鳥だよ
TTITLE10=ひばりの佐渡情話
TTITLE11=哀愁出船
TTITLE12=関東春雨傘
TTITLE13=髪
TTITLE14=柔
TTITLE15=お島千太郎
EXTD=
EXTT0=
EXTT1=
EXTT2=
EXTT3=
EXTT4=
EXTT5=
EXTT6=
EXTT7=
EXTT8=
EXTT9=
EXTT10=
EXTT11=
EXTT12=
EXTT13=
EXTT14=
EXTT15=
PLAYORDER=
